<svg id="visual" viewBox="0 0 900 600" width="900" height="600" xmlns="http://www.w3.org/2000/svg" xmlns:xlink="http://www.w3.org/1999/xlink" version="1.1"><rect x="0" y="0" width="900" height="600" fill="#001220"></rect><defs><linearGradient id="grad1_0" x1="33.3%" y1="0%" x2="100%" y2="100%"><stop offset="20%" stop-color="#fbae3c" stop-opacity="1"></stop><stop offset="80%" stop-color="#fbae3c" stop-opacity="1"></stop></linearGradient></defs><defs><linearGradient id="grad1_1" x1="33.3%" y1="0%" x2="100%" y2="100%"><stop offset="20%" stop-color="#fbae3c" stop-opacity="1"></stop><stop offset="80%" stop-color="#e1685e" stop-opacity="1"></stop></linearGradient></defs><defs><linearGradient id="grad1_2" x1="33.3%" y1="0%" x2="100%" y2="100%"><stop offset="20%" stop-color="#96446e" stop-opacity="1"></stop><stop offset="80%" stop-color="#e1685e" stop-opacity="1"></stop></linearGradient></defs><defs><linearGradient id="grad1_3" x1="33.3%" y1="0%" x2="100%" y2="100%"><stop offset="20%" stop-color="#96446e" stop-opacity="1"></stop><stop offset="80%" stop-color="#3d3056" stop-opacity="1"></stop></linearGradient></defs><defs><linearGradient id="grad1_4" x1="33.3%" y1="0%" x2="100%" y2="100%"><stop offset="20%" stop-color="#001220" stop-opacity="1"></stop><stop offset="80%" stop-color="#3d3056" stop-opacity="1"></stop></linearGradient></defs><defs><linearGradient id="grad2_0" x1="0%" y1="0%" x2="66.7%" y2="100%"><stop offset="20%" stop-color="#fbae3c" stop-opacity="1"></stop><stop offset="80%" stop-color="#fbae3c" stop-opacity="1"></stop></linearGradient></defs><defs><linearGradient id="grad2_1" x1="0%" y1="0%" x2="66.7%" y2="100%"><stop offset="20%" stop-color="#e1685e" stop-opacity="1"></stop><stop offset="80%" stop-color="#fbae3c" stop-opacity="1"></stop></linearGradient></defs><defs><linearGradient id="grad2_2" x1="0%" y1="0%" x2="66.7%" y2="100%"><stop offset="20%" stop-color="#e1685e" stop-opacity="1"></stop><stop offset="80%" stop-color="#96446e" stop-opacity="1"></stop></linearGradient></defs><defs><linearGradient id="grad2_3" x1="0%" y1="0%" x2="66.7%" y2="100%"><stop offset="20%" stop-color="#3d3056" stop-opacity="1"></stop><stop offset="80%" stop-color="#96446e" stop-opacity="1"></stop></linearGradient></defs><defs><linearGradient id="grad2_4" x1="0%" y1="0%" x2="66.7%" y2="100%"><stop offset="20%" stop-color="#3d3056" stop-opacity="1"></stop><stop offset="80%" stop-color="#001220" stop-opacity="1"></stop></linearGradient></defs><g transform="translate(900, 0)"><path d="M0 486.7C-64.3 480.9 -128.6 475 -186.3 449.7C-243.9 424.4 -295 379.7 -329.5 329.5C-364.1 279.4 -382.1 223.8 -405.6 168C-429 112.2 -457.9 56.1 -486.7 0L0 0Z" fill="#18223c"></path><path d="M0 389.4C-51.4 384.7 -102.9 380 -149 359.8C-195.1 339.5 -236 303.7 -263.6 263.6C-291.2 223.5 -305.7 179.1 -324.5 134.4C-343.2 89.7 -366.3 44.9 -389.4 0L0 0Z" fill="#683a67"></path><path d="M0 292C-38.6 288.5 -77.2 285 -111.8 269.8C-146.4 254.6 -177 227.8 -197.7 197.7C-218.4 167.6 -229.3 134.3 -243.3 100.8C-257.4 67.3 -274.7 33.7 -292 0L0 0Z" fill="#c0526a"></path><path d="M0 194.7C-25.7 192.4 -51.4 190 -74.5 179.9C-97.6 169.8 -118 151.9 -131.8 131.8C-145.6 111.7 -152.8 89.5 -162.2 67.2C-171.6 44.9 -183.2 22.4 -194.7 0L0 0Z" fill="#f6884d"></path><path d="M0 97.3C-12.9 96.2 -25.7 95 -37.3 89.9C-48.8 84.9 -59 75.9 -65.9 65.9C-72.8 55.9 -76.4 44.8 -81.1 33.6C-85.8 22.4 -91.6 11.2 -97.3 0L0 0Z" fill="#fbae3c"></path></g><g transform="translate(0, 600)"><path d="M0 -486.7C64.9 -469.9 129.8 -453.1 172.2 -415.7C214.6 -378.4 234.5 -320.6 283.5 -283.5C332.6 -246.5 411 -230.1 449.7 -186.3C488.4 -142.5 487.6 -71.2 486.7 0L0 0Z" fill="#18223c"></path><path d="M0 -389.4C51.9 -375.9 103.9 -362.5 137.8 -332.6C171.7 -302.7 187.6 -256.5 226.8 -226.8C266.1 -197.2 328.8 -184.1 359.8 -149C390.7 -114 390.1 -57 389.4 0L0 0Z" fill="#683a67"></path><path d="M0 -292C38.9 -281.9 77.9 -271.8 103.3 -249.4C128.8 -227.1 140.7 -192.4 170.1 -170.1C199.6 -147.9 246.6 -138 269.8 -111.8C293.1 -85.5 292.6 -42.7 292 0L0 0Z" fill="#c0526a"></path><path d="M0 -194.7C26 -188 51.9 -181.2 68.9 -166.3C85.8 -151.4 93.8 -128.3 113.4 -113.4C133.1 -98.6 164.4 -92 179.9 -74.5C195.4 -57 195 -28.5 194.7 0L0 0Z" fill="#f6884d"></path><path d="M0 -97.3C13 -94 26 -90.6 34.4 -83.1C42.9 -75.7 46.9 -64.1 56.7 -56.7C66.5 -49.3 82.2 -46 89.9 -37.3C97.7 -28.5 97.5 -14.2 97.3 0L0 0Z" fill="#fbae3c"></path></g></svg>